<mxfile host="app.diagrams.net" modified="2024-05-19T18:06:55.676Z" agent="Mozilla/5.0 (Macintosh; Intel Mac OS X 10_15_7) AppleWebKit/537.36 (KHTML, like Gecko) Chrome/123.0.0.0 Safari/537.36" etag="trLoUN61dWs4MVQsmrib" version="24.3.0" type="device">
  <diagram name="페이지-1" id="oaPoJ62NCz2fcmpFrCJF">
    <mxGraphModel dx="6574" dy="3300" grid="1" gridSize="10" guides="1" tooltips="1" connect="1" arrows="1" fold="1" page="1" pageScale="1" pageWidth="827" pageHeight="1169" math="0" shadow="0">
      <root>
        <mxCell id="0" />
        <mxCell id="1" parent="0" />
        <mxCell id="G3qtx_viLzdnVJc0cmcP-7" value="&lt;font style=&quot;font-size: 36px;&quot;&gt;Colosseum&lt;/font&gt;" style="swimlane;whiteSpace=wrap;html=1;startSize=110;" parent="1" vertex="1">
          <mxGeometry x="-1450" y="70" width="2350" height="1370" as="geometry" />
        </mxCell>
        <mxCell id="yPdwGWun_YZ4TnLHKPqg-33" style="edgeStyle=orthogonalEdgeStyle;rounded=0;orthogonalLoop=1;jettySize=auto;html=1;entryX=0.5;entryY=0;entryDx=0;entryDy=0;" parent="G3qtx_viLzdnVJc0cmcP-7" source="G3qtx_viLzdnVJc0cmcP-12" target="yPdwGWun_YZ4TnLHKPqg-28" edge="1">
          <mxGeometry relative="1" as="geometry" />
        </mxCell>
        <mxCell id="G3qtx_viLzdnVJc0cmcP-12" value="메인 페이지" style="swimlane;fontStyle=0;childLayout=stackLayout;horizontal=1;startSize=30;horizontalStack=0;resizeParent=1;resizeParentMax=0;resizeLast=0;collapsible=1;marginBottom=0;whiteSpace=wrap;html=1;" parent="G3qtx_viLzdnVJc0cmcP-7" vertex="1">
          <mxGeometry x="598" y="542" width="230" height="180" as="geometry" />
        </mxCell>
        <mxCell id="G3qtx_viLzdnVJc0cmcP-15" value="&amp;nbsp;검색바&amp;nbsp; &amp;nbsp; &amp;nbsp; &amp;nbsp; &amp;nbsp; &amp;nbsp; &amp;nbsp; &amp;nbsp; &amp;nbsp; &amp;nbsp; &amp;nbsp;로그인(유저 인터페이스)" style="text;strokeColor=none;fillColor=none;align=left;verticalAlign=middle;spacingLeft=4;spacingRight=4;overflow=hidden;points=[[0,0.5],[1,0.5]];portConstraint=eastwest;rotatable=0;whiteSpace=wrap;html=1;" parent="G3qtx_viLzdnVJc0cmcP-12" vertex="1">
          <mxGeometry y="30" width="230" height="30" as="geometry" />
        </mxCell>
        <mxCell id="G3qtx_viLzdnVJc0cmcP-16" value="태그 탭 (찬반토론 , 정보방 , 친목수다)" style="text;strokeColor=none;fillColor=none;align=left;verticalAlign=middle;spacingLeft=4;spacingRight=4;overflow=hidden;points=[[0,0.5],[1,0.5]];portConstraint=eastwest;rotatable=0;whiteSpace=wrap;html=1;" parent="G3qtx_viLzdnVJc0cmcP-12" vertex="1">
          <mxGeometry y="60" width="230" height="30" as="geometry" />
        </mxCell>
        <mxCell id="G3qtx_viLzdnVJc0cmcP-17" value="인기방(방제목), 인기댓글(방제목, 댓글내용)" style="text;strokeColor=none;fillColor=none;align=left;verticalAlign=middle;spacingLeft=4;spacingRight=4;overflow=hidden;points=[[0,0.5],[1,0.5]];portConstraint=eastwest;rotatable=0;whiteSpace=wrap;html=1;" parent="G3qtx_viLzdnVJc0cmcP-12" vertex="1">
          <mxGeometry y="90" width="230" height="30" as="geometry" />
        </mxCell>
        <mxCell id="G3qtx_viLzdnVJc0cmcP-18" value="랜덤 + 최신 방 랜덤 노출 + 무한 스크롤()&lt;div&gt;방(제목,태그,현재 접속자 수)&lt;/div&gt;" style="text;strokeColor=none;fillColor=none;align=left;verticalAlign=middle;spacingLeft=4;spacingRight=4;overflow=hidden;points=[[0,0.5],[1,0.5]];portConstraint=eastwest;rotatable=0;whiteSpace=wrap;html=1;" parent="G3qtx_viLzdnVJc0cmcP-12" vertex="1">
          <mxGeometry y="120" width="230" height="60" as="geometry" />
        </mxCell>
        <mxCell id="G3qtx_viLzdnVJc0cmcP-20" value="유저 인터페이스" style="swimlane;fontStyle=0;childLayout=stackLayout;horizontal=1;startSize=30;horizontalStack=0;resizeParent=1;resizeParentMax=0;resizeLast=0;collapsible=1;marginBottom=0;whiteSpace=wrap;html=1;" parent="G3qtx_viLzdnVJc0cmcP-7" vertex="1">
          <mxGeometry x="1278" y="570" width="140" height="120" as="geometry" />
        </mxCell>
        <mxCell id="G3qtx_viLzdnVJc0cmcP-21" value="내 방 관리" style="text;strokeColor=none;fillColor=none;align=left;verticalAlign=middle;spacingLeft=4;spacingRight=4;overflow=hidden;points=[[0,0.5],[1,0.5]];portConstraint=eastwest;rotatable=0;whiteSpace=wrap;html=1;" parent="G3qtx_viLzdnVJc0cmcP-20" vertex="1">
          <mxGeometry y="30" width="140" height="30" as="geometry" />
        </mxCell>
        <mxCell id="G3qtx_viLzdnVJc0cmcP-22" value="내 댓글 관리" style="text;strokeColor=none;fillColor=none;align=left;verticalAlign=middle;spacingLeft=4;spacingRight=4;overflow=hidden;points=[[0,0.5],[1,0.5]];portConstraint=eastwest;rotatable=0;whiteSpace=wrap;html=1;" parent="G3qtx_viLzdnVJc0cmcP-20" vertex="1">
          <mxGeometry y="60" width="140" height="30" as="geometry" />
        </mxCell>
        <mxCell id="G3qtx_viLzdnVJc0cmcP-25" value="정보 수정" style="text;strokeColor=none;fillColor=none;align=left;verticalAlign=middle;spacingLeft=4;spacingRight=4;overflow=hidden;points=[[0,0.5],[1,0.5]];portConstraint=eastwest;rotatable=0;whiteSpace=wrap;html=1;" parent="G3qtx_viLzdnVJc0cmcP-20" vertex="1">
          <mxGeometry y="90" width="140" height="30" as="geometry" />
        </mxCell>
        <mxCell id="G3qtx_viLzdnVJc0cmcP-24" style="edgeStyle=orthogonalEdgeStyle;rounded=0;orthogonalLoop=1;jettySize=auto;html=1;entryX=0;entryY=0.5;entryDx=0;entryDy=0;" parent="G3qtx_viLzdnVJc0cmcP-7" source="G3qtx_viLzdnVJc0cmcP-15" target="BChzOrUbBYJ-1Oe0NErW-5" edge="1">
          <mxGeometry relative="1" as="geometry" />
        </mxCell>
        <mxCell id="G3qtx_viLzdnVJc0cmcP-26" value="유저 정보 수정" style="swimlane;fontStyle=0;childLayout=stackLayout;horizontal=1;startSize=30;horizontalStack=0;resizeParent=1;resizeParentMax=0;resizeLast=0;collapsible=1;marginBottom=0;whiteSpace=wrap;html=1;" parent="G3qtx_viLzdnVJc0cmcP-7" vertex="1">
          <mxGeometry x="1538" y="760" width="140" height="120" as="geometry" />
        </mxCell>
        <mxCell id="G3qtx_viLzdnVJc0cmcP-27" value="닉네임 변경" style="text;strokeColor=none;fillColor=none;align=left;verticalAlign=middle;spacingLeft=4;spacingRight=4;overflow=hidden;points=[[0,0.5],[1,0.5]];portConstraint=eastwest;rotatable=0;whiteSpace=wrap;html=1;" parent="G3qtx_viLzdnVJc0cmcP-26" vertex="1">
          <mxGeometry y="30" width="140" height="30" as="geometry" />
        </mxCell>
        <mxCell id="G3qtx_viLzdnVJc0cmcP-28" value="비밀번호 변경" style="text;strokeColor=none;fillColor=none;align=left;verticalAlign=middle;spacingLeft=4;spacingRight=4;overflow=hidden;points=[[0,0.5],[1,0.5]];portConstraint=eastwest;rotatable=0;whiteSpace=wrap;html=1;" parent="G3qtx_viLzdnVJc0cmcP-26" vertex="1">
          <mxGeometry y="60" width="140" height="30" as="geometry" />
        </mxCell>
        <mxCell id="G3qtx_viLzdnVJc0cmcP-29" value="회원 탈퇴" style="text;strokeColor=none;fillColor=none;align=left;verticalAlign=middle;spacingLeft=4;spacingRight=4;overflow=hidden;points=[[0,0.5],[1,0.5]];portConstraint=eastwest;rotatable=0;whiteSpace=wrap;html=1;" parent="G3qtx_viLzdnVJc0cmcP-26" vertex="1">
          <mxGeometry y="90" width="140" height="30" as="geometry" />
        </mxCell>
        <mxCell id="G3qtx_viLzdnVJc0cmcP-30" style="edgeStyle=orthogonalEdgeStyle;rounded=0;orthogonalLoop=1;jettySize=auto;html=1;entryX=-0.032;entryY=0.135;entryDx=0;entryDy=0;entryPerimeter=0;" parent="G3qtx_viLzdnVJc0cmcP-7" source="G3qtx_viLzdnVJc0cmcP-25" target="G3qtx_viLzdnVJc0cmcP-26" edge="1">
          <mxGeometry relative="1" as="geometry">
            <mxPoint x="1448" y="674" as="targetPoint" />
            <Array as="points">
              <mxPoint x="1348" y="776" />
            </Array>
          </mxGeometry>
        </mxCell>
        <mxCell id="G3qtx_viLzdnVJc0cmcP-31" value="유저의 댓글" style="swimlane;fontStyle=0;childLayout=stackLayout;horizontal=1;startSize=30;horizontalStack=0;resizeParent=1;resizeParentMax=0;resizeLast=0;collapsible=1;marginBottom=0;whiteSpace=wrap;html=1;" parent="G3qtx_viLzdnVJc0cmcP-7" vertex="1">
          <mxGeometry x="1538" y="630" width="140" height="90" as="geometry" />
        </mxCell>
        <mxCell id="G3qtx_viLzdnVJc0cmcP-33" value="유저 작성한 댓글들" style="text;strokeColor=none;fillColor=none;align=left;verticalAlign=middle;spacingLeft=4;spacingRight=4;overflow=hidden;points=[[0,0.5],[1,0.5]];portConstraint=eastwest;rotatable=0;whiteSpace=wrap;html=1;" parent="G3qtx_viLzdnVJc0cmcP-31" vertex="1">
          <mxGeometry y="30" width="140" height="30" as="geometry" />
        </mxCell>
        <mxCell id="G3qtx_viLzdnVJc0cmcP-34" value="이동, 삭제" style="text;strokeColor=none;fillColor=none;align=left;verticalAlign=middle;spacingLeft=4;spacingRight=4;overflow=hidden;points=[[0,0.5],[1,0.5]];portConstraint=eastwest;rotatable=0;whiteSpace=wrap;html=1;" parent="G3qtx_viLzdnVJc0cmcP-31" vertex="1">
          <mxGeometry y="60" width="140" height="30" as="geometry" />
        </mxCell>
        <mxCell id="G3qtx_viLzdnVJc0cmcP-36" style="edgeStyle=orthogonalEdgeStyle;rounded=0;orthogonalLoop=1;jettySize=auto;html=1;entryX=-0.005;entryY=0.167;entryDx=0;entryDy=0;entryPerimeter=0;" parent="G3qtx_viLzdnVJc0cmcP-7" source="G3qtx_viLzdnVJc0cmcP-22" target="G3qtx_viLzdnVJc0cmcP-31" edge="1">
          <mxGeometry relative="1" as="geometry" />
        </mxCell>
        <mxCell id="G3qtx_viLzdnVJc0cmcP-37" value="유저의 방" style="swimlane;fontStyle=0;childLayout=stackLayout;horizontal=1;startSize=30;horizontalStack=0;resizeParent=1;resizeParentMax=0;resizeLast=0;collapsible=1;marginBottom=0;whiteSpace=wrap;html=1;" parent="G3qtx_viLzdnVJc0cmcP-7" vertex="1">
          <mxGeometry x="1538" y="520" width="140" height="90" as="geometry" />
        </mxCell>
        <mxCell id="G3qtx_viLzdnVJc0cmcP-38" value="유저가 작성한 방들" style="text;strokeColor=none;fillColor=none;align=left;verticalAlign=middle;spacingLeft=4;spacingRight=4;overflow=hidden;points=[[0,0.5],[1,0.5]];portConstraint=eastwest;rotatable=0;whiteSpace=wrap;html=1;" parent="G3qtx_viLzdnVJc0cmcP-37" vertex="1">
          <mxGeometry y="30" width="140" height="30" as="geometry" />
        </mxCell>
        <mxCell id="G3qtx_viLzdnVJc0cmcP-39" value="이동, 삭제" style="text;strokeColor=none;fillColor=none;align=left;verticalAlign=middle;spacingLeft=4;spacingRight=4;overflow=hidden;points=[[0,0.5],[1,0.5]];portConstraint=eastwest;rotatable=0;whiteSpace=wrap;html=1;" parent="G3qtx_viLzdnVJc0cmcP-37" vertex="1">
          <mxGeometry y="60" width="140" height="30" as="geometry" />
        </mxCell>
        <mxCell id="G3qtx_viLzdnVJc0cmcP-40" style="edgeStyle=orthogonalEdgeStyle;rounded=0;orthogonalLoop=1;jettySize=auto;html=1;entryX=0.004;entryY=0.139;entryDx=0;entryDy=0;entryPerimeter=0;" parent="G3qtx_viLzdnVJc0cmcP-7" source="G3qtx_viLzdnVJc0cmcP-21" target="G3qtx_viLzdnVJc0cmcP-37" edge="1">
          <mxGeometry relative="1" as="geometry" />
        </mxCell>
        <mxCell id="yPdwGWun_YZ4TnLHKPqg-28" value="room(채팅방)" style="swimlane;fontStyle=0;childLayout=stackLayout;horizontal=1;startSize=30;horizontalStack=0;resizeParent=1;resizeParentMax=0;resizeLast=0;collapsible=1;marginBottom=0;whiteSpace=wrap;html=1;" parent="G3qtx_viLzdnVJc0cmcP-7" vertex="1">
          <mxGeometry x="598" y="832" width="230" height="110" as="geometry" />
        </mxCell>
        <mxCell id="BChzOrUbBYJ-1Oe0NErW-57" style="edgeStyle=orthogonalEdgeStyle;rounded=0;orthogonalLoop=1;jettySize=auto;html=1;" edge="1" parent="yPdwGWun_YZ4TnLHKPqg-28" source="yPdwGWun_YZ4TnLHKPqg-30">
          <mxGeometry relative="1" as="geometry">
            <mxPoint x="320" y="55" as="targetPoint" />
          </mxGeometry>
        </mxCell>
        <mxCell id="yPdwGWun_YZ4TnLHKPqg-30" value="&lt;div&gt;익명 (이름:(cookie : ),프사:랜덤 (cookie)&lt;/div&gt;&lt;div&gt;유저 (이름:닉네임, 프사:커스텀)&lt;/div&gt;" style="text;strokeColor=none;fillColor=none;align=left;verticalAlign=middle;spacingLeft=4;spacingRight=4;overflow=hidden;points=[[0,0.5],[1,0.5]];portConstraint=eastwest;rotatable=0;whiteSpace=wrap;html=1;" parent="yPdwGWun_YZ4TnLHKPqg-28" vertex="1">
          <mxGeometry y="30" width="230" height="50" as="geometry" />
        </mxCell>
        <mxCell id="yPdwGWun_YZ4TnLHKPqg-31" value="댓글(내용)(날짜)" style="text;strokeColor=none;fillColor=none;align=left;verticalAlign=middle;spacingLeft=4;spacingRight=4;overflow=hidden;points=[[0,0.5],[1,0.5]];portConstraint=eastwest;rotatable=0;whiteSpace=wrap;html=1;" parent="yPdwGWun_YZ4TnLHKPqg-28" vertex="1">
          <mxGeometry y="80" width="230" height="30" as="geometry" />
        </mxCell>
        <mxCell id="yPdwGWun_YZ4TnLHKPqg-35" value="recomment(게시판 형식)" style="swimlane;fontStyle=0;childLayout=stackLayout;horizontal=1;startSize=30;horizontalStack=0;resizeParent=1;resizeParentMax=0;resizeLast=0;collapsible=1;marginBottom=0;whiteSpace=wrap;html=1;" parent="G3qtx_viLzdnVJc0cmcP-7" vertex="1">
          <mxGeometry x="598" y="1062" width="230" height="110" as="geometry" />
        </mxCell>
        <mxCell id="BChzOrUbBYJ-1Oe0NErW-61" value="&lt;div style=&quot;forced-color-adjust: none; color: rgb(0, 0, 0); font-family: Helvetica; font-size: 12px; font-style: normal; font-variant-ligatures: normal; font-variant-caps: normal; font-weight: 400; letter-spacing: normal; orphans: 2; text-align: left; text-indent: 0px; text-transform: none; widows: 2; word-spacing: 0px; -webkit-text-stroke-width: 0px; white-space: normal; background-color: rgb(251, 251, 251); text-decoration-thickness: initial; text-decoration-style: initial; text-decoration-color: initial;&quot;&gt;익명 (이름:(cookie : ),프사:랜덤 (cookie)&lt;/div&gt;&lt;div style=&quot;forced-color-adjust: none; color: rgb(0, 0, 0); font-family: Helvetica; font-size: 12px; font-style: normal; font-variant-ligatures: normal; font-variant-caps: normal; font-weight: 400; letter-spacing: normal; orphans: 2; text-align: left; text-indent: 0px; text-transform: none; widows: 2; word-spacing: 0px; -webkit-text-stroke-width: 0px; white-space: normal; background-color: rgb(251, 251, 251); text-decoration-thickness: initial; text-decoration-style: initial; text-decoration-color: initial;&quot;&gt;유저 (이름:닉네임, 프사:커스텀)&lt;/div&gt;&lt;div style=&quot;forced-color-adjust: none; color: rgb(0, 0, 0); font-family: Helvetica; font-size: 12px; font-style: normal; font-variant-ligatures: normal; font-variant-caps: normal; font-weight: 400; letter-spacing: normal; orphans: 2; text-align: left; text-indent: 0px; text-transform: none; widows: 2; word-spacing: 0px; -webkit-text-stroke-width: 0px; white-space: normal; background-color: rgb(251, 251, 251); text-decoration-thickness: initial; text-decoration-style: initial; text-decoration-color: initial;&quot;&gt;내용&lt;/div&gt;" style="text;strokeColor=none;fillColor=none;align=left;verticalAlign=middle;spacingLeft=4;spacingRight=4;overflow=hidden;points=[[0,0.5],[1,0.5]];portConstraint=eastwest;rotatable=0;whiteSpace=wrap;html=1;" vertex="1" parent="yPdwGWun_YZ4TnLHKPqg-35">
          <mxGeometry y="30" width="230" height="50" as="geometry" />
        </mxCell>
        <mxCell id="yPdwGWun_YZ4TnLHKPqg-38" value="대댓글(유저)(내용)(날짜)" style="text;strokeColor=none;fillColor=none;align=left;verticalAlign=middle;spacingLeft=4;spacingRight=4;overflow=hidden;points=[[0,0.5],[1,0.5]];portConstraint=eastwest;rotatable=0;whiteSpace=wrap;html=1;" parent="yPdwGWun_YZ4TnLHKPqg-35" vertex="1">
          <mxGeometry y="80" width="230" height="30" as="geometry" />
        </mxCell>
        <mxCell id="yPdwGWun_YZ4TnLHKPqg-34" style="edgeStyle=orthogonalEdgeStyle;rounded=0;orthogonalLoop=1;jettySize=auto;html=1;entryX=0.5;entryY=0;entryDx=0;entryDy=0;" parent="G3qtx_viLzdnVJc0cmcP-7" source="yPdwGWun_YZ4TnLHKPqg-31" target="yPdwGWun_YZ4TnLHKPqg-35" edge="1">
          <mxGeometry relative="1" as="geometry">
            <mxPoint x="908" y="1052" as="targetPoint" />
            <Array as="points">
              <mxPoint x="713" y="1042" />
              <mxPoint x="713" y="1042" />
            </Array>
          </mxGeometry>
        </mxCell>
        <mxCell id="BChzOrUbBYJ-1Oe0NErW-5" value="cookie&lt;div&gt;user : name&lt;/div&gt;" style="rhombus;whiteSpace=wrap;html=1;" vertex="1" parent="G3qtx_viLzdnVJc0cmcP-7">
          <mxGeometry x="928" y="547" width="100" height="80" as="geometry" />
        </mxCell>
        <mxCell id="BChzOrUbBYJ-1Oe0NErW-6" style="edgeStyle=orthogonalEdgeStyle;rounded=0;orthogonalLoop=1;jettySize=auto;html=1;" edge="1" parent="G3qtx_viLzdnVJc0cmcP-7" source="BChzOrUbBYJ-1Oe0NErW-5">
          <mxGeometry relative="1" as="geometry">
            <mxPoint x="1278" y="585" as="targetPoint" />
            <Array as="points">
              <mxPoint x="1153" y="587" />
              <mxPoint x="1278" y="586" />
            </Array>
          </mxGeometry>
        </mxCell>
        <mxCell id="BChzOrUbBYJ-1Oe0NErW-7" value="YES" style="text;html=1;align=center;verticalAlign=middle;resizable=0;points=[];autosize=1;strokeColor=none;fillColor=none;" vertex="1" parent="G3qtx_viLzdnVJc0cmcP-7">
          <mxGeometry x="1028" y="552" width="50" height="30" as="geometry" />
        </mxCell>
        <mxCell id="BChzOrUbBYJ-1Oe0NErW-8" value="로그인" style="swimlane;fontStyle=0;childLayout=stackLayout;horizontal=1;startSize=30;horizontalStack=0;resizeParent=1;resizeParentMax=0;resizeLast=0;collapsible=1;marginBottom=0;whiteSpace=wrap;html=1;" vertex="1" parent="G3qtx_viLzdnVJc0cmcP-7">
          <mxGeometry x="1105" y="299.5" width="140" height="150" as="geometry" />
        </mxCell>
        <mxCell id="BChzOrUbBYJ-1Oe0NErW-9" value="아이디" style="text;strokeColor=none;fillColor=none;align=left;verticalAlign=middle;spacingLeft=4;spacingRight=4;overflow=hidden;points=[[0,0.5],[1,0.5]];portConstraint=eastwest;rotatable=0;whiteSpace=wrap;html=1;" vertex="1" parent="BChzOrUbBYJ-1Oe0NErW-8">
          <mxGeometry y="30" width="140" height="30" as="geometry" />
        </mxCell>
        <mxCell id="BChzOrUbBYJ-1Oe0NErW-10" value="비밀번호" style="text;strokeColor=none;fillColor=none;align=left;verticalAlign=middle;spacingLeft=4;spacingRight=4;overflow=hidden;points=[[0,0.5],[1,0.5]];portConstraint=eastwest;rotatable=0;whiteSpace=wrap;html=1;" vertex="1" parent="BChzOrUbBYJ-1Oe0NErW-8">
          <mxGeometry y="60" width="140" height="30" as="geometry" />
        </mxCell>
        <mxCell id="BChzOrUbBYJ-1Oe0NErW-11" value="회원가입" style="text;strokeColor=none;fillColor=none;align=left;verticalAlign=middle;spacingLeft=4;spacingRight=4;overflow=hidden;points=[[0,0.5],[1,0.5]];portConstraint=eastwest;rotatable=0;whiteSpace=wrap;html=1;" vertex="1" parent="BChzOrUbBYJ-1Oe0NErW-8">
          <mxGeometry y="90" width="140" height="30" as="geometry" />
        </mxCell>
        <mxCell id="BChzOrUbBYJ-1Oe0NErW-43" value="로그인 버튼" style="text;strokeColor=none;fillColor=none;align=left;verticalAlign=middle;spacingLeft=4;spacingRight=4;overflow=hidden;points=[[0,0.5],[1,0.5]];portConstraint=eastwest;rotatable=0;whiteSpace=wrap;html=1;" vertex="1" parent="BChzOrUbBYJ-1Oe0NErW-8">
          <mxGeometry y="120" width="140" height="30" as="geometry" />
        </mxCell>
        <mxCell id="BChzOrUbBYJ-1Oe0NErW-12" value="회원가입" style="swimlane;fontStyle=0;childLayout=stackLayout;horizontal=1;startSize=30;horizontalStack=0;resizeParent=1;resizeParentMax=0;resizeLast=0;collapsible=1;marginBottom=0;whiteSpace=wrap;html=1;" vertex="1" parent="G3qtx_viLzdnVJc0cmcP-7">
          <mxGeometry x="1508" y="302" width="140" height="180" as="geometry" />
        </mxCell>
        <mxCell id="BChzOrUbBYJ-1Oe0NErW-13" value="이메일" style="text;strokeColor=none;fillColor=none;align=left;verticalAlign=middle;spacingLeft=4;spacingRight=4;overflow=hidden;points=[[0,0.5],[1,0.5]];portConstraint=eastwest;rotatable=0;whiteSpace=wrap;html=1;" vertex="1" parent="BChzOrUbBYJ-1Oe0NErW-12">
          <mxGeometry y="30" width="140" height="30" as="geometry" />
        </mxCell>
        <mxCell id="BChzOrUbBYJ-1Oe0NErW-14" value="비밀번호" style="text;strokeColor=none;fillColor=none;align=left;verticalAlign=middle;spacingLeft=4;spacingRight=4;overflow=hidden;points=[[0,0.5],[1,0.5]];portConstraint=eastwest;rotatable=0;whiteSpace=wrap;html=1;" vertex="1" parent="BChzOrUbBYJ-1Oe0NErW-12">
          <mxGeometry y="60" width="140" height="30" as="geometry" />
        </mxCell>
        <mxCell id="BChzOrUbBYJ-1Oe0NErW-15" value="비밀번호 확인" style="text;strokeColor=none;fillColor=none;align=left;verticalAlign=middle;spacingLeft=4;spacingRight=4;overflow=hidden;points=[[0,0.5],[1,0.5]];portConstraint=eastwest;rotatable=0;whiteSpace=wrap;html=1;" vertex="1" parent="BChzOrUbBYJ-1Oe0NErW-12">
          <mxGeometry y="90" width="140" height="30" as="geometry" />
        </mxCell>
        <mxCell id="BChzOrUbBYJ-1Oe0NErW-16" value="닉네임" style="text;strokeColor=none;fillColor=none;align=left;verticalAlign=middle;spacingLeft=4;spacingRight=4;overflow=hidden;points=[[0,0.5],[1,0.5]];portConstraint=eastwest;rotatable=0;whiteSpace=wrap;html=1;" vertex="1" parent="BChzOrUbBYJ-1Oe0NErW-12">
          <mxGeometry y="120" width="140" height="30" as="geometry" />
        </mxCell>
        <mxCell id="BChzOrUbBYJ-1Oe0NErW-44" value="회원가입 버튼" style="text;strokeColor=none;fillColor=none;align=left;verticalAlign=middle;spacingLeft=4;spacingRight=4;overflow=hidden;points=[[0,0.5],[1,0.5]];portConstraint=eastwest;rotatable=0;whiteSpace=wrap;html=1;" vertex="1" parent="BChzOrUbBYJ-1Oe0NErW-12">
          <mxGeometry y="150" width="140" height="30" as="geometry" />
        </mxCell>
        <mxCell id="BChzOrUbBYJ-1Oe0NErW-17" style="edgeStyle=orthogonalEdgeStyle;rounded=0;orthogonalLoop=1;jettySize=auto;html=1;entryX=0.006;entryY=0.112;entryDx=0;entryDy=0;entryPerimeter=0;" edge="1" parent="G3qtx_viLzdnVJc0cmcP-7" source="BChzOrUbBYJ-1Oe0NErW-5" target="BChzOrUbBYJ-1Oe0NErW-8">
          <mxGeometry relative="1" as="geometry">
            <Array as="points">
              <mxPoint x="978" y="315" />
              <mxPoint x="1099" y="315" />
            </Array>
          </mxGeometry>
        </mxCell>
        <mxCell id="BChzOrUbBYJ-1Oe0NErW-20" style="edgeStyle=orthogonalEdgeStyle;rounded=0;orthogonalLoop=1;jettySize=auto;html=1;entryX=-0.002;entryY=0.089;entryDx=0;entryDy=0;entryPerimeter=0;" edge="1" parent="G3qtx_viLzdnVJc0cmcP-7" source="BChzOrUbBYJ-1Oe0NErW-11" target="BChzOrUbBYJ-1Oe0NErW-12">
          <mxGeometry relative="1" as="geometry" />
        </mxCell>
        <mxCell id="BChzOrUbBYJ-1Oe0NErW-18" value="NO" style="text;html=1;align=center;verticalAlign=middle;resizable=0;points=[];autosize=1;strokeColor=none;fillColor=none;" vertex="1" parent="G3qtx_viLzdnVJc0cmcP-7">
          <mxGeometry x="978" y="490" width="40" height="30" as="geometry" />
        </mxCell>
        <mxCell id="BChzOrUbBYJ-1Oe0NErW-19" value="hrf : /login" style="text;html=1;align=center;verticalAlign=middle;resizable=0;points=[];autosize=1;strokeColor=none;fillColor=none;" vertex="1" parent="G3qtx_viLzdnVJc0cmcP-7">
          <mxGeometry x="1010" y="280" width="80" height="30" as="geometry" />
        </mxCell>
        <mxCell id="BChzOrUbBYJ-1Oe0NErW-21" value="hrf: /regist" style="text;html=1;align=center;verticalAlign=middle;resizable=0;points=[];autosize=1;strokeColor=none;fillColor=none;" vertex="1" parent="G3qtx_viLzdnVJc0cmcP-7">
          <mxGeometry x="1398" y="290" width="80" height="30" as="geometry" />
        </mxCell>
        <mxCell id="BChzOrUbBYJ-1Oe0NErW-23" value="&lt;div style=&quot;font-family: Menlo, Monaco, &amp;quot;Courier New&amp;quot;, monospace; line-height: 18px; white-space: pre;&quot;&gt;&lt;span style=&quot;background-color: rgb(255, 255, 255);&quot;&gt;hrf : /room/:roomId&lt;/span&gt;&lt;/div&gt;" style="whiteSpace=wrap;html=1;" vertex="1" parent="G3qtx_viLzdnVJc0cmcP-7">
          <mxGeometry x="1768" y="582" width="203" height="35" as="geometry" />
        </mxCell>
        <mxCell id="BChzOrUbBYJ-1Oe0NErW-24" style="edgeStyle=orthogonalEdgeStyle;rounded=0;orthogonalLoop=1;jettySize=auto;html=1;entryX=0;entryY=0.5;entryDx=0;entryDy=0;" edge="1" parent="G3qtx_viLzdnVJc0cmcP-7" source="G3qtx_viLzdnVJc0cmcP-39" target="BChzOrUbBYJ-1Oe0NErW-23">
          <mxGeometry relative="1" as="geometry" />
        </mxCell>
        <mxCell id="BChzOrUbBYJ-1Oe0NErW-26" style="edgeStyle=orthogonalEdgeStyle;rounded=0;orthogonalLoop=1;jettySize=auto;html=1;entryX=0;entryY=0.5;entryDx=0;entryDy=0;" edge="1" parent="G3qtx_viLzdnVJc0cmcP-7" source="G3qtx_viLzdnVJc0cmcP-34" target="BChzOrUbBYJ-1Oe0NErW-33">
          <mxGeometry relative="1" as="geometry">
            <mxPoint x="1767.9999999999995" y="705" as="targetPoint" />
          </mxGeometry>
        </mxCell>
        <mxCell id="BChzOrUbBYJ-1Oe0NErW-30" value="&lt;div style=&quot;font-family: Menlo, Monaco, &amp;quot;Courier New&amp;quot;, monospace; line-height: 18px; white-space: pre;&quot;&gt;&lt;span style=&quot;background-color: rgb(255, 255, 255);&quot;&gt;post : /user/get/rooms&lt;/span&gt;&lt;/div&gt;" style="whiteSpace=wrap;html=1;" vertex="1" parent="G3qtx_viLzdnVJc0cmcP-7">
          <mxGeometry x="1768" y="546" width="203" height="38" as="geometry" />
        </mxCell>
        <mxCell id="BChzOrUbBYJ-1Oe0NErW-31" style="edgeStyle=orthogonalEdgeStyle;rounded=0;orthogonalLoop=1;jettySize=auto;html=1;" edge="1" parent="G3qtx_viLzdnVJc0cmcP-7" source="G3qtx_viLzdnVJc0cmcP-38" target="BChzOrUbBYJ-1Oe0NErW-30">
          <mxGeometry relative="1" as="geometry" />
        </mxCell>
        <mxCell id="BChzOrUbBYJ-1Oe0NErW-33" value="&lt;div style=&quot;font-family: Menlo, Monaco, &amp;quot;Courier New&amp;quot;, monospace; line-height: 18px; white-space: pre;&quot;&gt;&lt;span style=&quot;background-color: rgb(255, 255, 255);&quot;&gt;hrf : /recomment/:chatId&lt;/span&gt;&lt;br&gt;&lt;/div&gt;" style="whiteSpace=wrap;html=1;" vertex="1" parent="G3qtx_viLzdnVJc0cmcP-7">
          <mxGeometry x="1768" y="690" width="203" height="35" as="geometry" />
        </mxCell>
        <mxCell id="BChzOrUbBYJ-1Oe0NErW-34" value="&lt;div style=&quot;font-family: Menlo, Monaco, &amp;quot;Courier New&amp;quot;, monospace; line-height: 18px; white-space: pre;&quot;&gt;&lt;span style=&quot;background-color: rgb(255, 255, 255);&quot;&gt;post : /user/get/recomments&lt;/span&gt;&lt;/div&gt;" style="whiteSpace=wrap;html=1;" vertex="1" parent="G3qtx_viLzdnVJc0cmcP-7">
          <mxGeometry x="1768" y="657.5" width="203" height="35" as="geometry" />
        </mxCell>
        <mxCell id="BChzOrUbBYJ-1Oe0NErW-32" style="edgeStyle=orthogonalEdgeStyle;rounded=0;orthogonalLoop=1;jettySize=auto;html=1;entryX=0;entryY=0.5;entryDx=0;entryDy=0;" edge="1" parent="G3qtx_viLzdnVJc0cmcP-7" source="G3qtx_viLzdnVJc0cmcP-33" target="BChzOrUbBYJ-1Oe0NErW-34">
          <mxGeometry relative="1" as="geometry">
            <mxPoint x="1757.9999999999995" y="660" as="targetPoint" />
          </mxGeometry>
        </mxCell>
        <mxCell id="BChzOrUbBYJ-1Oe0NErW-36" value="&lt;div style=&quot;font-family: Menlo, Monaco, &amp;quot;Courier New&amp;quot;, monospace; line-height: 18px; white-space: pre;&quot;&gt;&lt;span style=&quot;background-color: rgb(255, 255, 255);&quot;&gt;post : /user/set/pw&lt;/span&gt;&lt;/div&gt;" style="whiteSpace=wrap;html=1;" vertex="1" parent="G3qtx_viLzdnVJc0cmcP-7">
          <mxGeometry x="1768" y="822.5" width="203" height="35" as="geometry" />
        </mxCell>
        <mxCell id="BChzOrUbBYJ-1Oe0NErW-37" value="&lt;div style=&quot;font-family: Menlo, Monaco, &amp;quot;Courier New&amp;quot;, monospace; line-height: 18px; white-space: pre;&quot;&gt;&lt;span style=&quot;background-color: rgb(255, 255, 255);&quot;&gt;post : /user/set/name&lt;/span&gt;&lt;/div&gt;" style="whiteSpace=wrap;html=1;" vertex="1" parent="G3qtx_viLzdnVJc0cmcP-7">
          <mxGeometry x="1768" y="790" width="203" height="35" as="geometry" />
        </mxCell>
        <mxCell id="BChzOrUbBYJ-1Oe0NErW-38" value="&lt;div style=&quot;font-family: Menlo, Monaco, &amp;quot;Courier New&amp;quot;, monospace; line-height: 18px; white-space: pre;&quot;&gt;&lt;span style=&quot;background-color: rgb(255, 255, 255);&quot;&gt;post : /user/kill&lt;/span&gt;&lt;/div&gt;" style="whiteSpace=wrap;html=1;" vertex="1" parent="G3qtx_viLzdnVJc0cmcP-7">
          <mxGeometry x="1768" y="857.5" width="203" height="35" as="geometry" />
        </mxCell>
        <mxCell id="BChzOrUbBYJ-1Oe0NErW-39" style="edgeStyle=orthogonalEdgeStyle;rounded=0;orthogonalLoop=1;jettySize=auto;html=1;entryX=0;entryY=0.5;entryDx=0;entryDy=0;" edge="1" parent="G3qtx_viLzdnVJc0cmcP-7" source="G3qtx_viLzdnVJc0cmcP-29" target="BChzOrUbBYJ-1Oe0NErW-38">
          <mxGeometry relative="1" as="geometry" />
        </mxCell>
        <mxCell id="BChzOrUbBYJ-1Oe0NErW-40" style="edgeStyle=orthogonalEdgeStyle;rounded=0;orthogonalLoop=1;jettySize=auto;html=1;entryX=0;entryY=0.5;entryDx=0;entryDy=0;" edge="1" parent="G3qtx_viLzdnVJc0cmcP-7" source="G3qtx_viLzdnVJc0cmcP-28" target="BChzOrUbBYJ-1Oe0NErW-36">
          <mxGeometry relative="1" as="geometry" />
        </mxCell>
        <mxCell id="BChzOrUbBYJ-1Oe0NErW-41" style="edgeStyle=orthogonalEdgeStyle;rounded=0;orthogonalLoop=1;jettySize=auto;html=1;entryX=0;entryY=0.5;entryDx=0;entryDy=0;" edge="1" parent="G3qtx_viLzdnVJc0cmcP-7" source="G3qtx_viLzdnVJc0cmcP-27" target="BChzOrUbBYJ-1Oe0NErW-37">
          <mxGeometry relative="1" as="geometry" />
        </mxCell>
        <mxCell id="BChzOrUbBYJ-1Oe0NErW-45" value="&lt;div style=&quot;font-family: Menlo, Monaco, &amp;quot;Courier New&amp;quot;, monospace; line-height: 18px; white-space: pre;&quot;&gt;&lt;span style=&quot;background-color: rgb(255, 255, 255);&quot;&gt;post : /login&lt;/span&gt;&lt;/div&gt;" style="whiteSpace=wrap;html=1;" vertex="1" parent="G3qtx_viLzdnVJc0cmcP-7">
          <mxGeometry x="1278" y="417" width="137" height="35" as="geometry" />
        </mxCell>
        <mxCell id="BChzOrUbBYJ-1Oe0NErW-46" style="edgeStyle=orthogonalEdgeStyle;rounded=0;orthogonalLoop=1;jettySize=auto;html=1;entryX=0;entryY=0.5;entryDx=0;entryDy=0;" edge="1" parent="G3qtx_viLzdnVJc0cmcP-7" source="BChzOrUbBYJ-1Oe0NErW-43" target="BChzOrUbBYJ-1Oe0NErW-45">
          <mxGeometry relative="1" as="geometry" />
        </mxCell>
        <mxCell id="BChzOrUbBYJ-1Oe0NErW-48" value="&lt;div style=&quot;font-family: Menlo, Monaco, &amp;quot;Courier New&amp;quot;, monospace; line-height: 18px; white-space: pre;&quot;&gt;&lt;span style=&quot;background-color: rgb(255, 255, 255);&quot;&gt;post : /regist&lt;/span&gt;&lt;/div&gt;" style="whiteSpace=wrap;html=1;" vertex="1" parent="G3qtx_viLzdnVJc0cmcP-7">
          <mxGeometry x="1758" y="449.5" width="137" height="35" as="geometry" />
        </mxCell>
        <mxCell id="BChzOrUbBYJ-1Oe0NErW-49" style="edgeStyle=orthogonalEdgeStyle;rounded=0;orthogonalLoop=1;jettySize=auto;html=1;entryX=0;entryY=0.5;entryDx=0;entryDy=0;" edge="1" parent="G3qtx_viLzdnVJc0cmcP-7" source="BChzOrUbBYJ-1Oe0NErW-44" target="BChzOrUbBYJ-1Oe0NErW-48">
          <mxGeometry relative="1" as="geometry" />
        </mxCell>
        <mxCell id="BChzOrUbBYJ-1Oe0NErW-50" value="post : /search" style="whiteSpace=wrap;html=1;" vertex="1" parent="G3qtx_viLzdnVJc0cmcP-7">
          <mxGeometry x="388" y="568.5" width="120" height="37" as="geometry" />
        </mxCell>
        <mxCell id="BChzOrUbBYJ-1Oe0NErW-1" style="edgeStyle=orthogonalEdgeStyle;rounded=0;orthogonalLoop=1;jettySize=auto;html=1;entryX=1;entryY=0.5;entryDx=0;entryDy=0;" edge="1" parent="G3qtx_viLzdnVJc0cmcP-7" source="G3qtx_viLzdnVJc0cmcP-15" target="BChzOrUbBYJ-1Oe0NErW-50">
          <mxGeometry relative="1" as="geometry">
            <mxPoint x="498" y="587" as="targetPoint" />
          </mxGeometry>
        </mxCell>
        <mxCell id="BChzOrUbBYJ-1Oe0NErW-51" value="&lt;span style=&quot;background-color: rgb(255, 255, 255);&quot;&gt;post : /&lt;span style=&quot;font-family: Menlo, Monaco, &amp;quot;Courier New&amp;quot;, monospace; white-space: pre;&quot;&gt;highLight/room&lt;/span&gt;&lt;/span&gt;" style="whiteSpace=wrap;html=1;" vertex="1" parent="G3qtx_viLzdnVJc0cmcP-7">
          <mxGeometry x="388" y="628.5" width="147" height="37" as="geometry" />
        </mxCell>
        <mxCell id="BChzOrUbBYJ-1Oe0NErW-52" value="&lt;div style=&quot;font-family: Menlo, Monaco, &amp;quot;Courier New&amp;quot;, monospace; line-height: 18px; white-space: pre;&quot;&gt;&lt;span style=&quot;background-color: rgb(255, 255, 255);&quot;&gt;post : /highLight/recomment&lt;/span&gt;&lt;/div&gt;" style="whiteSpace=wrap;html=1;" vertex="1" parent="G3qtx_viLzdnVJc0cmcP-7">
          <mxGeometry x="888" y="628.5" width="233" height="37" as="geometry" />
        </mxCell>
        <mxCell id="BChzOrUbBYJ-1Oe0NErW-53" style="edgeStyle=orthogonalEdgeStyle;rounded=0;orthogonalLoop=1;jettySize=auto;html=1;entryX=0;entryY=0.5;entryDx=0;entryDy=0;" edge="1" parent="G3qtx_viLzdnVJc0cmcP-7" source="G3qtx_viLzdnVJc0cmcP-17" target="BChzOrUbBYJ-1Oe0NErW-52">
          <mxGeometry relative="1" as="geometry" />
        </mxCell>
        <mxCell id="BChzOrUbBYJ-1Oe0NErW-54" style="edgeStyle=orthogonalEdgeStyle;rounded=0;orthogonalLoop=1;jettySize=auto;html=1;entryX=1;entryY=0.5;entryDx=0;entryDy=0;" edge="1" parent="G3qtx_viLzdnVJc0cmcP-7" source="G3qtx_viLzdnVJc0cmcP-17" target="BChzOrUbBYJ-1Oe0NErW-51">
          <mxGeometry relative="1" as="geometry" />
        </mxCell>
        <mxCell id="BChzOrUbBYJ-1Oe0NErW-55" value="&lt;div style=&quot;font-family: Menlo, Monaco, &amp;quot;Courier New&amp;quot;, monospace; line-height: 18px; white-space: pre;&quot;&gt;&lt;span style=&quot;background-color: rgb(255, 255, 255);&quot;&gt;post : /ranRooms&lt;/span&gt;&lt;/div&gt;" style="whiteSpace=wrap;html=1;" vertex="1" parent="G3qtx_viLzdnVJc0cmcP-7">
          <mxGeometry x="888" y="673.5" width="233" height="37" as="geometry" />
        </mxCell>
        <mxCell id="BChzOrUbBYJ-1Oe0NErW-56" style="edgeStyle=orthogonalEdgeStyle;rounded=0;orthogonalLoop=1;jettySize=auto;html=1;entryX=0;entryY=0.5;entryDx=0;entryDy=0;" edge="1" parent="G3qtx_viLzdnVJc0cmcP-7" source="G3qtx_viLzdnVJc0cmcP-18" target="BChzOrUbBYJ-1Oe0NErW-55">
          <mxGeometry relative="1" as="geometry" />
        </mxCell>
        <mxCell id="BChzOrUbBYJ-1Oe0NErW-60" style="edgeStyle=orthogonalEdgeStyle;rounded=0;orthogonalLoop=1;jettySize=auto;html=1;entryX=0;entryY=0.5;entryDx=0;entryDy=0;" edge="1" parent="G3qtx_viLzdnVJc0cmcP-7" source="BChzOrUbBYJ-1Oe0NErW-58" target="yPdwGWun_YZ4TnLHKPqg-30">
          <mxGeometry relative="1" as="geometry" />
        </mxCell>
        <mxCell id="BChzOrUbBYJ-1Oe0NErW-58" value="&lt;div style=&quot;color: rgb(204, 204, 204); background-color: rgb(31, 31, 31); font-family: Menlo, Monaco, &amp;quot;Courier New&amp;quot;, monospace; line-height: 18px; white-space: pre;&quot;&gt;&lt;div&gt;&lt;span style=&quot;color: #4fc1ff;&quot;&gt;socket&lt;/span&gt;&lt;span style=&quot;color: #d4d4d4;&quot;&gt;.&lt;/span&gt;&lt;span style=&quot;color: #dcdcaa;&quot;&gt;emit&lt;/span&gt;&lt;span style=&quot;color: #d4d4d4;&quot;&gt;(&lt;/span&gt;&lt;span style=&quot;color: #ce9178;&quot;&gt;&quot;chatLoad&quot;&lt;/span&gt;&lt;span style=&quot;color: #d4d4d4;&quot;&gt;, {&lt;/span&gt;&lt;/div&gt;&lt;div&gt;&lt;span style=&quot;color: #d4d4d4;&quot;&gt;          &lt;/span&gt;&lt;span style=&quot;color: #9cdcfe;&quot;&gt;time&lt;/span&gt;&lt;span style=&quot;color: #9cdcfe;&quot;&gt;:&lt;/span&gt;&lt;span style=&quot;color: #d4d4d4;&quot;&gt; &lt;/span&gt;&lt;span style=&quot;color: #9cdcfe;&quot;&gt;time&lt;/span&gt;&lt;span style=&quot;color: #d4d4d4;&quot;&gt;,&lt;/span&gt;&lt;/div&gt;&lt;div&gt;&lt;span style=&quot;color: #d4d4d4;&quot;&gt;          &lt;/span&gt;&lt;span style=&quot;color: #9cdcfe;&quot;&gt;roomId&lt;/span&gt;&lt;span style=&quot;color: #9cdcfe;&quot;&gt;:&lt;/span&gt;&lt;span style=&quot;color: #d4d4d4;&quot;&gt; +&lt;/span&gt;&lt;span style=&quot;color: #4fc1ff;&quot;&gt;roomId&lt;/span&gt;&lt;span style=&quot;color: rgb(212, 212, 212);&quot;&gt;});&lt;/span&gt;&lt;/div&gt;&lt;/div&gt;" style="whiteSpace=wrap;html=1;" vertex="1" parent="G3qtx_viLzdnVJc0cmcP-7">
          <mxGeometry x="170" y="832" width="303" height="110" as="geometry" />
        </mxCell>
        <mxCell id="BChzOrUbBYJ-1Oe0NErW-59" value="&lt;div style=&quot;color: rgb(204, 204, 204); background-color: rgb(31, 31, 31); font-family: Menlo, Monaco, &amp;quot;Courier New&amp;quot;, monospace; line-height: 18px; white-space: pre;&quot;&gt;&lt;div style=&quot;line-height: 18px;&quot;&gt;&lt;span style=&quot;color: #4fc1ff;&quot;&gt;socket&lt;/span&gt;&lt;span style=&quot;color: #d4d4d4;&quot;&gt;.&lt;/span&gt;&lt;span style=&quot;color: #dcdcaa;&quot;&gt;emit&lt;/span&gt;&lt;span style=&quot;color: #d4d4d4;&quot;&gt;(&lt;/span&gt;&lt;span style=&quot;color: #ce9178;&quot;&gt;&quot;chatReply&quot;&lt;/span&gt;&lt;span style=&quot;color: #d4d4d4;&quot;&gt;, &lt;/span&gt;&lt;span style=&quot;color: #4fc1ff;&quot;&gt;talk&lt;/span&gt;&lt;span style=&quot;color: #d4d4d4;&quot;&gt;.&lt;/span&gt;&lt;span style=&quot;color: #9cdcfe;&quot;&gt;value&lt;/span&gt;&lt;span style=&quot;color: #d4d4d4;&quot;&gt;);&lt;/span&gt;&lt;/div&gt;&lt;/div&gt;" style="whiteSpace=wrap;html=1;" vertex="1" parent="G3qtx_viLzdnVJc0cmcP-7">
          <mxGeometry x="920" y="840" width="303" height="110" as="geometry" />
        </mxCell>
        <mxCell id="BChzOrUbBYJ-1Oe0NErW-22" value="hrf : /user" style="text;html=1;align=center;verticalAlign=middle;resizable=0;points=[];autosize=1;strokeColor=none;fillColor=none;" vertex="1" parent="G3qtx_viLzdnVJc0cmcP-7">
          <mxGeometry x="1078" y="552" width="70" height="30" as="geometry" />
        </mxCell>
        <mxCell id="BChzOrUbBYJ-1Oe0NErW-62" value="&lt;span style=&quot;font-family: Menlo, Monaco, &amp;quot;Courier New&amp;quot;, monospace; white-space-collapse: preserve; background-color: rgb(255, 255, 255);&quot;&gt;hrf : /room/:roomId&lt;/span&gt;" style="text;html=1;align=center;verticalAlign=middle;resizable=0;points=[];autosize=1;strokeColor=none;fillColor=none;" vertex="1" parent="G3qtx_viLzdnVJc0cmcP-7">
          <mxGeometry x="720" y="768" width="160" height="30" as="geometry" />
        </mxCell>
        <mxCell id="BChzOrUbBYJ-1Oe0NErW-63" value="&lt;span style=&quot;font-family: Menlo, Monaco, &amp;quot;Courier New&amp;quot;, monospace; white-space-collapse: preserve; background-color: rgb(255, 255, 255);&quot;&gt;hrf : /recomment/:chatId&lt;/span&gt;" style="text;html=1;align=center;verticalAlign=middle;resizable=0;points=[];autosize=1;strokeColor=none;fillColor=none;" vertex="1" parent="G3qtx_viLzdnVJc0cmcP-7">
          <mxGeometry x="710" y="998" width="200" height="30" as="geometry" />
        </mxCell>
        <mxCell id="BChzOrUbBYJ-1Oe0NErW-64" value="&lt;div style=&quot;font-family: Menlo, Monaco, &amp;quot;Courier New&amp;quot;, monospace; line-height: 18px; white-space: pre;&quot;&gt;&lt;span style=&quot;background-color: rgb(255, 255, 255);&quot;&gt;post : /recomment/contents&lt;/span&gt;&lt;/div&gt;" style="whiteSpace=wrap;html=1;" vertex="1" parent="G3qtx_viLzdnVJc0cmcP-7">
          <mxGeometry x="910" y="1099" width="233" height="37" as="geometry" />
        </mxCell>
        <mxCell id="BChzOrUbBYJ-1Oe0NErW-65" style="edgeStyle=orthogonalEdgeStyle;rounded=0;orthogonalLoop=1;jettySize=auto;html=1;entryX=0;entryY=0.5;entryDx=0;entryDy=0;" edge="1" parent="G3qtx_viLzdnVJc0cmcP-7" source="BChzOrUbBYJ-1Oe0NErW-61" target="BChzOrUbBYJ-1Oe0NErW-64">
          <mxGeometry relative="1" as="geometry" />
        </mxCell>
        <mxCell id="BChzOrUbBYJ-1Oe0NErW-66" value="&lt;div style=&quot;font-family: Menlo, Monaco, &amp;quot;Courier New&amp;quot;, monospace; line-height: 18px; white-space: pre;&quot;&gt;&lt;span style=&quot;background-color: rgb(255, 255, 255);&quot;&gt;post : /recomment/comments&lt;/span&gt;&lt;/div&gt;" style="whiteSpace=wrap;html=1;" vertex="1" parent="G3qtx_viLzdnVJc0cmcP-7">
          <mxGeometry x="910" y="1138.5" width="233" height="37" as="geometry" />
        </mxCell>
        <mxCell id="BChzOrUbBYJ-1Oe0NErW-67" style="edgeStyle=orthogonalEdgeStyle;rounded=0;orthogonalLoop=1;jettySize=auto;html=1;entryX=0;entryY=0.5;entryDx=0;entryDy=0;" edge="1" parent="G3qtx_viLzdnVJc0cmcP-7" source="yPdwGWun_YZ4TnLHKPqg-38" target="BChzOrUbBYJ-1Oe0NErW-66">
          <mxGeometry relative="1" as="geometry" />
        </mxCell>
      </root>
    </mxGraphModel>
  </diagram>
</mxfile>
